<mxfile host="app.diagrams.net" modified="2024-04-10T19:06:42.281Z" agent="Mozilla/5.0 (Windows NT 10.0; Win64; x64) AppleWebKit/537.36 (KHTML, like Gecko) Chrome/123.0.0.0 Safari/537.36" etag="ERu6wZBUI0YowhvQCeMa" version="24.2.2" type="device">
  <diagram name="Página-1" id="RyGvVElgejkU-gwoVNPn">
    <mxGraphModel dx="1354" dy="638" grid="1" gridSize="10" guides="1" tooltips="1" connect="1" arrows="1" fold="1" page="1" pageScale="1" pageWidth="827" pageHeight="1169" math="0" shadow="0">
      <root>
        <mxCell id="0" />
        <mxCell id="1" parent="0" />
        <mxCell id="fR8GnSuHYF2Ru6uegTNE-2" value="" style="verticalLabelPosition=bottom;verticalAlign=top;html=1;shadow=0;dashed=0;strokeWidth=1;shape=mxgraph.android.phone2;strokeColor=#c0c0c0;" vertex="1" parent="1">
          <mxGeometry x="70" y="40" width="200" height="390" as="geometry" />
        </mxCell>
        <mxCell id="fR8GnSuHYF2Ru6uegTNE-15" value="" style="rounded=1;whiteSpace=wrap;html=1;" vertex="1" parent="1">
          <mxGeometry x="80" y="220" width="180" height="380" as="geometry" />
        </mxCell>
        <mxCell id="fR8GnSuHYF2Ru6uegTNE-1" value="" style="rounded=0;whiteSpace=wrap;html=1;" vertex="1" parent="1">
          <mxGeometry x="80" y="70" width="180" height="70" as="geometry" />
        </mxCell>
        <mxCell id="fR8GnSuHYF2Ru6uegTNE-6" value="" style="line;strokeWidth=4;html=1;perimeter=backbonePerimeter;points=[];outlineConnect=0;" vertex="1" parent="1">
          <mxGeometry x="220" y="90" width="10" height="10" as="geometry" />
        </mxCell>
        <mxCell id="fR8GnSuHYF2Ru6uegTNE-7" value="" style="line;strokeWidth=4;html=1;perimeter=backbonePerimeter;points=[];outlineConnect=0;" vertex="1" parent="1">
          <mxGeometry x="240" y="90" width="10" height="10" as="geometry" />
        </mxCell>
        <mxCell id="fR8GnSuHYF2Ru6uegTNE-8" value="" style="line;strokeWidth=4;html=1;perimeter=backbonePerimeter;points=[];outlineConnect=0;" vertex="1" parent="1">
          <mxGeometry x="220" y="100" width="30" height="10" as="geometry" />
        </mxCell>
        <mxCell id="fR8GnSuHYF2Ru6uegTNE-9" value="" style="line;strokeWidth=4;html=1;perimeter=backbonePerimeter;points=[];outlineConnect=0;" vertex="1" parent="1">
          <mxGeometry x="220" y="110" width="10" height="10" as="geometry" />
        </mxCell>
        <mxCell id="fR8GnSuHYF2Ru6uegTNE-10" value="" style="line;strokeWidth=4;html=1;perimeter=backbonePerimeter;points=[];outlineConnect=0;" vertex="1" parent="1">
          <mxGeometry x="240" y="110" width="10" height="10" as="geometry" />
        </mxCell>
        <mxCell id="fR8GnSuHYF2Ru6uegTNE-11" value="" style="sketch=0;outlineConnect=0;fontColor=#232F3E;gradientColor=none;fillColor=#ED7100;strokeColor=none;dashed=0;verticalLabelPosition=bottom;verticalAlign=top;align=center;html=1;fontSize=12;fontStyle=0;aspect=fixed;pointerEvents=1;shape=mxgraph.aws4.container_registry_image;" vertex="1" parent="1">
          <mxGeometry x="90" y="81" width="48" height="48" as="geometry" />
        </mxCell>
        <mxCell id="fR8GnSuHYF2Ru6uegTNE-12" value="Sobre" style="rounded=1;whiteSpace=wrap;html=1;" vertex="1" parent="1">
          <mxGeometry x="80" y="140" width="180" height="80" as="geometry" />
        </mxCell>
        <mxCell id="fR8GnSuHYF2Ru6uegTNE-13" value="BANNER" style="text;html=1;align=center;verticalAlign=middle;whiteSpace=wrap;rounded=0;" vertex="1" parent="1">
          <mxGeometry x="200" y="140" width="60" height="30" as="geometry" />
        </mxCell>
        <mxCell id="fR8GnSuHYF2Ru6uegTNE-14" value="" style="sketch=0;outlineConnect=0;fontColor=#232F3E;gradientColor=none;fillColor=#ED7100;strokeColor=none;dashed=0;verticalLabelPosition=bottom;verticalAlign=top;align=center;html=1;fontSize=12;fontStyle=0;aspect=fixed;pointerEvents=1;shape=mxgraph.aws4.container_registry_image;" vertex="1" parent="1">
          <mxGeometry x="115" y="230" width="110" height="110" as="geometry" />
        </mxCell>
        <mxCell id="fR8GnSuHYF2Ru6uegTNE-16" value="&lt;h1 style=&quot;margin-top: 0px;&quot;&gt;&lt;span style=&quot;white-space: pre;&quot;&gt;&#x9;&lt;/span&gt;Olá&lt;/h1&gt;&lt;p&gt;Lorem ipsum dolor sit amet, consectetur adipisicing elit, sed do eiusmod tempor incididunt ut labore et dolore magna aliqua.&lt;/p&gt;&lt;p&gt;Lorem ipsum dolor sit amet, consectetur adipisicing elit, sed do eiusmod tempor incididunt ut labore et dolore magna aliqua.&lt;br&gt;&lt;/p&gt;" style="text;html=1;whiteSpace=wrap;overflow=hidden;rounded=0;" vertex="1" parent="1">
          <mxGeometry x="90" y="350" width="160" height="220" as="geometry" />
        </mxCell>
        <mxCell id="fR8GnSuHYF2Ru6uegTNE-18" value="" style="rounded=0;whiteSpace=wrap;html=1;" vertex="1" parent="1">
          <mxGeometry x="80" y="600" width="180" height="50" as="geometry" />
        </mxCell>
        <mxCell id="fR8GnSuHYF2Ru6uegTNE-19" value="" style="sketch=0;outlineConnect=0;fontColor=#232F3E;gradientColor=none;fillColor=#ED7100;strokeColor=none;dashed=0;verticalLabelPosition=bottom;verticalAlign=top;align=center;html=1;fontSize=12;fontStyle=0;aspect=fixed;pointerEvents=1;shape=mxgraph.aws4.container_registry_image;" vertex="1" parent="1">
          <mxGeometry x="220" y="611" width="28" height="28" as="geometry" />
        </mxCell>
        <mxCell id="fR8GnSuHYF2Ru6uegTNE-20" value="" style="sketch=0;outlineConnect=0;fontColor=#232F3E;gradientColor=none;fillColor=#ED7100;strokeColor=none;dashed=0;verticalLabelPosition=bottom;verticalAlign=top;align=center;html=1;fontSize=12;fontStyle=0;aspect=fixed;pointerEvents=1;shape=mxgraph.aws4.container_registry_image;" vertex="1" parent="1">
          <mxGeometry x="190" y="611" width="28" height="28" as="geometry" />
        </mxCell>
        <mxCell id="fR8GnSuHYF2Ru6uegTNE-21" value="Copyright" style="text;html=1;align=center;verticalAlign=middle;whiteSpace=wrap;rounded=0;" vertex="1" parent="1">
          <mxGeometry x="84" y="609" width="60" height="30" as="geometry" />
        </mxCell>
        <mxCell id="fR8GnSuHYF2Ru6uegTNE-22" value="" style="strokeWidth=1;shadow=0;dashed=0;align=center;html=1;shape=mxgraph.mockup.containers.browserWindow;rSize=0;strokeColor=#666666;strokeColor2=#008cff;strokeColor3=#c4c4c4;mainText=,;recursiveResize=0;" vertex="1" parent="1">
          <mxGeometry y="710" width="820" height="640" as="geometry" />
        </mxCell>
        <mxCell id="fR8GnSuHYF2Ru6uegTNE-23" value="Page 1" style="strokeWidth=1;shadow=0;dashed=0;align=center;html=1;shape=mxgraph.mockup.containers.anchor;fontSize=17;fontColor=#666666;align=left;whiteSpace=wrap;" vertex="1" parent="fR8GnSuHYF2Ru6uegTNE-22">
          <mxGeometry x="60" y="12" width="110" height="26" as="geometry" />
        </mxCell>
        <mxCell id="fR8GnSuHYF2Ru6uegTNE-24" value="https://www.draw.io" style="strokeWidth=1;shadow=0;dashed=0;align=center;html=1;shape=mxgraph.mockup.containers.anchor;rSize=0;fontSize=17;fontColor=#666666;align=left;" vertex="1" parent="fR8GnSuHYF2Ru6uegTNE-22">
          <mxGeometry x="130" y="60" width="250" height="26" as="geometry" />
        </mxCell>
        <mxCell id="fR8GnSuHYF2Ru6uegTNE-25" value="Sobre" style="rounded=0;whiteSpace=wrap;html=1;" vertex="1" parent="fR8GnSuHYF2Ru6uegTNE-22">
          <mxGeometry y="110" width="820" height="170" as="geometry" />
        </mxCell>
        <mxCell id="fR8GnSuHYF2Ru6uegTNE-26" value="BANNER" style="text;html=1;align=center;verticalAlign=middle;whiteSpace=wrap;rounded=0;" vertex="1" parent="fR8GnSuHYF2Ru6uegTNE-22">
          <mxGeometry x="760" y="110" width="60" height="30" as="geometry" />
        </mxCell>
        <mxCell id="fR8GnSuHYF2Ru6uegTNE-27" value="" style="sketch=0;outlineConnect=0;fontColor=#232F3E;gradientColor=none;fillColor=#ED7100;strokeColor=none;dashed=0;verticalLabelPosition=bottom;verticalAlign=top;align=center;html=1;fontSize=12;fontStyle=0;aspect=fixed;pointerEvents=1;shape=mxgraph.aws4.container_registry_image;" vertex="1" parent="fR8GnSuHYF2Ru6uegTNE-22">
          <mxGeometry x="80" y="360" width="170" height="170" as="geometry" />
        </mxCell>
        <mxCell id="fR8GnSuHYF2Ru6uegTNE-28" value="&lt;h1 style=&quot;margin-top: 0px;&quot;&gt;Olá&lt;/h1&gt;&lt;p&gt;Lorem ipsum dolor sit amet, consectetur adipisicing elit, sed do eiusmod tempor incididunt ut labore et dolore magna aliqua.&lt;br&gt;&lt;span style=&quot;background-color: initial;&quot;&gt;Lorem ipsum dolor sit amet, consectetur adipisicing elit, sed do eiusmod tempor incididunt ut labore et dolore magna aliqua.&lt;br&gt;&lt;/span&gt;Lorem ipsum dolor sit amet, consectetur adipisicing elit, sed do eiusmod tempor incididunt ut labore et dolore magna aliqua.&lt;span style=&quot;background-color: initial;&quot;&gt;&lt;br&gt;&lt;/span&gt;&lt;/p&gt;" style="text;html=1;whiteSpace=wrap;overflow=hidden;rounded=0;" vertex="1" parent="fR8GnSuHYF2Ru6uegTNE-22">
          <mxGeometry x="350" y="370" width="360" height="170" as="geometry" />
        </mxCell>
        <mxCell id="fR8GnSuHYF2Ru6uegTNE-29" value="" style="rounded=0;whiteSpace=wrap;html=1;" vertex="1" parent="1">
          <mxGeometry y="1350" width="820" height="120" as="geometry" />
        </mxCell>
        <mxCell id="fR8GnSuHYF2Ru6uegTNE-30" value="" style="sketch=0;outlineConnect=0;fontColor=#232F3E;gradientColor=none;fillColor=#ED7100;strokeColor=none;dashed=0;verticalLabelPosition=bottom;verticalAlign=top;align=center;html=1;fontSize=12;fontStyle=0;aspect=fixed;pointerEvents=1;shape=mxgraph.aws4.container_registry_image;" vertex="1" parent="1">
          <mxGeometry x="740" y="1385" width="50" height="50" as="geometry" />
        </mxCell>
        <mxCell id="fR8GnSuHYF2Ru6uegTNE-32" value="" style="sketch=0;outlineConnect=0;fontColor=#232F3E;gradientColor=none;fillColor=#ED7100;strokeColor=none;dashed=0;verticalLabelPosition=bottom;verticalAlign=top;align=center;html=1;fontSize=12;fontStyle=0;aspect=fixed;pointerEvents=1;shape=mxgraph.aws4.container_registry_image;" vertex="1" parent="1">
          <mxGeometry x="680" y="1385" width="50" height="50" as="geometry" />
        </mxCell>
        <mxCell id="fR8GnSuHYF2Ru6uegTNE-33" value="" style="sketch=0;outlineConnect=0;fontColor=#232F3E;gradientColor=none;fillColor=#ED7100;strokeColor=none;dashed=0;verticalLabelPosition=bottom;verticalAlign=top;align=center;html=1;fontSize=12;fontStyle=0;aspect=fixed;pointerEvents=1;shape=mxgraph.aws4.container_registry_image;" vertex="1" parent="1">
          <mxGeometry x="620" y="1385" width="50" height="50" as="geometry" />
        </mxCell>
        <mxCell id="fR8GnSuHYF2Ru6uegTNE-34" value="Copyright" style="text;html=1;align=center;verticalAlign=middle;whiteSpace=wrap;rounded=0;" vertex="1" parent="1">
          <mxGeometry x="40" y="1395" width="60" height="30" as="geometry" />
        </mxCell>
      </root>
    </mxGraphModel>
  </diagram>
</mxfile>
